<svg width="451" height="504" viewBox="0 0 451 504" fill="none" xmlns="http://www.w3.org/2000/svg">
<path d="M436.527 202.287C436.527 202.717 436.171 203.074 435.74 203.074C435.31 203.074 434.953 202.717 434.953 202.287C434.953 201.857 435.31 201.5 435.74 201.5C436.171 201.5 436.527 201.857 436.527 202.287Z" fill="#161616" stroke="#161616" stroke-width="15"/>
<path d="M331.404 202.287C331.404 202.717 331.047 203.074 330.617 203.074C330.187 203.074 329.83 202.717 329.83 202.287C329.83 201.857 330.187 201.5 330.617 201.5C331.048 201.5 331.404 201.857 331.404 202.287Z" fill="#161616" stroke="#161616" stroke-width="15"/>
<path d="M226.281 202.287C226.281 202.717 225.924 203.074 225.494 203.074C225.064 203.074 224.707 202.717 224.707 202.287C224.707 201.857 225.064 201.5 225.494 201.5C225.925 201.5 226.281 201.857 226.281 202.287Z" fill="#161616" stroke="#161616" stroke-width="15"/>
<path d="M121.172 202.287C121.172 202.717 120.815 203.074 120.385 203.074C119.955 203.074 119.598 202.717 119.598 202.287C119.598 201.857 119.955 201.5 120.385 201.5C120.815 201.5 121.172 201.857 121.172 202.287Z" fill="#161616" stroke="#161616" stroke-width="15"/>
<path d="M16.0488 202.287C16.0488 202.717 15.692 203.074 15.2619 203.074C14.8318 203.074 14.475 202.717 14.475 202.287C14.475 201.857 14.8316 201.5 15.2619 201.5C15.6922 201.5 16.0488 201.857 16.0488 202.287Z" fill="#161616" stroke="#161616" stroke-width="15"/>
<path d="M436.527 108.318C436.527 108.748 436.171 109.105 435.74 109.105C435.31 109.105 434.953 108.748 434.953 108.318C434.953 107.887 435.31 107.531 435.74 107.531C436.171 107.531 436.527 107.888 436.527 108.318Z" fill="#161616" stroke="#161616" stroke-width="15"/>
<path d="M331.404 108.318C331.404 108.748 331.048 109.105 330.617 109.105C330.187 109.105 329.83 108.748 329.83 108.318C329.83 107.888 330.187 107.531 330.617 107.531C331.048 107.531 331.404 107.887 331.404 108.318Z" fill="#161616" stroke="#161616" stroke-width="15"/>
<path d="M226.281 108.318C226.281 108.748 225.925 109.105 225.494 109.105C225.064 109.105 224.707 108.748 224.707 108.318C224.707 107.888 225.064 107.531 225.494 107.531C225.925 107.531 226.281 107.888 226.281 108.318Z" fill="#161616" stroke="#161616" stroke-width="15"/>
<path d="M121.172 108.318C121.172 108.748 120.815 109.105 120.385 109.105C119.955 109.105 119.598 108.748 119.598 108.318C119.598 107.887 119.955 107.531 120.385 107.531C120.815 107.531 121.172 107.887 121.172 108.318Z" fill="#161616" stroke="#161616" stroke-width="15"/>
<path d="M16.0488 108.318C16.0488 108.748 15.6921 109.105 15.2619 109.105C14.8317 109.105 14.475 108.748 14.475 108.318C14.475 107.887 14.8317 107.531 15.2619 107.531C15.6921 107.531 16.0488 107.887 16.0488 108.318Z" fill="#161616" stroke="#161616" stroke-width="15"/>
<path d="M436.527 14.4047C436.527 14.8349 436.171 15.1917 435.74 15.1917C435.31 15.1917 434.953 14.835 434.953 14.4047C434.953 13.9745 435.31 13.6178 435.74 13.6178C436.171 13.6178 436.527 13.9745 436.527 14.4047Z" fill="#161616" stroke="#161616" stroke-width="15"/>
<path d="M329.83 14.4047C329.83 13.9701 330.183 13.6178 330.617 13.6178C331.052 13.6178 331.404 13.9701 331.404 14.4047C331.404 14.8394 331.052 15.1917 330.617 15.1917C330.183 15.1917 329.83 14.8393 329.83 14.4047Z" fill="#161616" stroke="#161616" stroke-width="15"/>
<path d="M224.707 14.4047C224.707 13.9701 225.06 13.6178 225.494 13.6178C225.929 13.6178 226.281 13.9701 226.281 14.4047C226.281 14.8393 225.929 15.1917 225.494 15.1917C225.06 15.1917 224.707 14.8393 224.707 14.4047Z" fill="#161616" stroke="#161616" stroke-width="15"/>
<path d="M121.172 14.4047C121.172 14.8349 120.815 15.1917 120.385 15.1917C119.955 15.1917 119.598 14.8349 119.598 14.4047C119.598 13.9745 119.955 13.6178 120.385 13.6178C120.815 13.6178 121.172 13.9745 121.172 14.4047Z" fill="#161616" stroke="#161616" stroke-width="15"/>
<path d="M16.0488 14.4047C16.0488 14.8349 15.6921 15.1917 15.2619 15.1917C14.8317 15.1917 14.475 14.8349 14.475 14.4047C14.475 13.9745 14.8317 13.6178 15.2619 13.6178C15.6921 13.6178 16.0488 13.9745 16.0488 14.4047Z" fill="#161616" stroke="#161616" stroke-width="15"/>
<path d="M436.527 489.595C436.527 490.025 436.171 490.382 435.74 490.382C435.31 490.382 434.953 490.026 434.953 489.595C434.953 489.165 435.31 488.808 435.74 488.808C436.171 488.808 436.527 489.165 436.527 489.595Z" fill="#161616" stroke="#161616" stroke-width="15"/>
<path d="M331.404 489.595C331.404 490.026 331.047 490.382 330.617 490.382C330.187 490.382 329.83 490.025 329.83 489.595C329.83 489.165 330.187 488.808 330.617 488.808C331.048 488.808 331.404 489.165 331.404 489.595Z" fill="#161616" stroke="#161616" stroke-width="15"/>
<path d="M226.281 489.595C226.281 490.025 225.924 490.382 225.494 490.382C225.064 490.382 224.707 490.025 224.707 489.595C224.707 489.165 225.064 488.808 225.494 488.808C225.925 488.808 226.281 489.165 226.281 489.595Z" fill="#161616" stroke="#161616" stroke-width="15"/>
<path d="M121.172 489.595C121.172 490.026 120.815 490.382 120.385 490.382C119.955 490.382 119.598 490.026 119.598 489.595C119.598 489.165 119.955 488.808 120.385 488.808C120.815 488.808 121.172 489.165 121.172 489.595Z" fill="#161616" stroke="#161616" stroke-width="15"/>
<path d="M16.0488 489.595C16.0488 490.025 15.692 490.382 15.2619 490.382C14.8318 490.382 14.475 490.025 14.475 489.595C14.475 489.165 14.8316 488.808 15.2619 488.808C15.6922 488.808 16.0488 489.165 16.0488 489.595Z" fill="#161616" stroke="#161616" stroke-width="15"/>
<path d="M436.527 395.626C436.527 396.056 436.171 396.413 435.74 396.413C435.31 396.413 434.953 396.056 434.953 395.626C434.953 395.196 435.31 394.839 435.74 394.839C436.171 394.839 436.527 395.196 436.527 395.626Z" fill="#161616" stroke="#161616" stroke-width="15"/>
<path d="M331.404 395.626C331.404 396.056 331.048 396.413 330.617 396.413C330.187 396.413 329.83 396.056 329.83 395.626C329.83 395.196 330.187 394.839 330.617 394.839C331.048 394.839 331.404 395.196 331.404 395.626Z" fill="#161616" stroke="#161616" stroke-width="15"/>
<path d="M226.281 395.626C226.281 396.056 225.925 396.413 225.494 396.413C225.064 396.413 224.707 396.056 224.707 395.626C224.707 395.196 225.064 394.839 225.494 394.839C225.925 394.839 226.281 395.196 226.281 395.626Z" fill="#161616" stroke="#161616" stroke-width="15"/>
<path d="M121.172 395.626C121.172 396.056 120.815 396.413 120.385 396.413C119.955 396.413 119.598 396.056 119.598 395.626C119.598 395.196 119.955 394.839 120.385 394.839C120.815 394.839 121.172 395.196 121.172 395.626Z" fill="#161616" stroke="#161616" stroke-width="15"/>
<path d="M16.0488 395.626C16.0488 396.056 15.6921 396.413 15.2619 396.413C14.8317 396.413 14.475 396.056 14.475 395.626C14.475 395.196 14.8317 394.839 15.2619 394.839C15.6921 394.839 16.0488 395.196 16.0488 395.626Z" fill="#161616" stroke="#161616" stroke-width="15"/>
<path d="M436.527 301.713C436.527 302.143 436.171 302.5 435.74 302.5C435.31 302.5 434.953 302.143 434.953 301.713C434.953 301.283 435.31 300.926 435.74 300.926C436.171 300.926 436.527 301.283 436.527 301.713Z" fill="#161616" stroke="#161616" stroke-width="15"/>
<path d="M329.83 301.713C329.83 301.278 330.183 300.926 330.617 300.926C331.052 300.926 331.404 301.278 331.404 301.713C331.404 302.148 331.052 302.5 330.617 302.5C330.183 302.5 329.83 302.148 329.83 301.713Z" fill="#161616" stroke="#161616" stroke-width="15"/>
<path d="M224.707 301.713C224.707 301.278 225.06 300.926 225.494 300.926C225.929 300.926 226.281 301.278 226.281 301.713C226.281 302.148 225.929 302.5 225.494 302.5C225.06 302.5 224.707 302.148 224.707 301.713Z" fill="#161616" stroke="#161616" stroke-width="15"/>
<path d="M121.172 301.713C121.172 302.143 120.815 302.5 120.385 302.5C119.955 302.5 119.598 302.143 119.598 301.713C119.598 301.283 119.955 300.926 120.385 300.926C120.815 300.926 121.172 301.283 121.172 301.713Z" fill="#161616" stroke="#161616" stroke-width="15"/>
<path d="M16.0488 301.713C16.0488 302.143 15.6921 302.5 15.2619 302.5C14.8317 302.5 14.475 302.143 14.475 301.713C14.475 301.283 14.8317 300.926 15.2619 300.926C15.6921 300.926 16.0488 301.283 16.0488 301.713Z" fill="#161616" stroke="#161616" stroke-width="15"/>
</svg>
