<svg width="1008" height="629" viewBox="0 0 1008 629" fill="none" xmlns="http://www.w3.org/2000/svg">
<mask id="mask0_248_94" style="mask-type:alpha" maskUnits="userSpaceOnUse" x="0" y="0" width="1008" height="629">
<path d="M2.5 626.5V2.5H1005.5V626.5H2.5Z" fill="#EBE9FF" stroke="#1E1E1E" stroke-width="5"/>
</mask>
<g mask="url(#mask0_248_94)">
<path d="M1004.01 615.207C948.249 615.207 948.249 576.966 892.483 576.966C836.718 576.966 836.718 615.207 780.953 615.207C725.187 615.207 725.187 576.966 669.422 576.966C613.657 576.966 613.657 615.207 557.891 615.207C502.126 615.207 502.126 576.966 446.361 576.966C390.596 576.966 390.596 615.207 334.83 615.207C279.065 615.207 279.065 576.966 223.3 576.966C167.534 576.966 167.534 615.207 111.65 615.207C55.8845 615.207 55.8845 576.966 0 576.966" stroke="#161616" stroke-width="5" stroke-miterlimit="10" stroke-linecap="round"/>
<path d="M1004.01 550.68C948.249 550.68 948.249 512.439 892.483 512.439C836.718 512.439 836.718 550.68 780.953 550.68C725.187 550.68 725.187 512.439 669.422 512.439C613.657 512.439 613.657 550.68 557.891 550.68C502.126 550.68 502.126 512.439 446.361 512.439C390.596 512.439 390.596 550.68 334.83 550.68C279.065 550.68 279.065 512.439 223.3 512.439C167.534 512.439 167.534 550.68 111.65 550.68C55.8845 550.68 55.8845 512.439 0 512.439" stroke="#161616" stroke-width="5" stroke-miterlimit="10" stroke-linecap="round"/>
<path d="M1004.01 486.169C948.245 486.169 948.245 447.928 892.479 447.928C836.714 447.928 836.714 486.169 780.949 486.169C725.183 486.169 725.183 447.928 669.418 447.928C613.653 447.928 613.653 486.169 557.888 486.169C502.122 486.169 502.122 447.928 446.357 447.928C390.592 447.928 390.592 486.169 334.826 486.169C279.061 486.169 279.061 447.928 223.296 447.928C167.53 447.928 167.53 486.169 111.646 486.169C55.9997 486.169 55.9997 447.928 0.234375 447.928" stroke="#161616" stroke-width="5" stroke-miterlimit="10" stroke-linecap="round"/>
<path d="M1008 188.647C952.013 188.647 952.013 150.254 896.027 150.254C840.04 150.254 840.04 188.647 784.053 188.647C728.066 188.647 728.067 150.254 672.08 150.254C616.093 150.254 616.093 188.647 560.106 188.647C504.12 188.647 504.12 150.254 448.133 150.254C392.146 150.254 392.146 188.647 336.16 188.647C280.173 188.647 280.173 150.254 224.186 150.254C168.199 150.254 168.199 188.647 112.093 188.647C56.1064 188.647 56.1063 150.254 0 150.254" stroke="#161616" stroke-width="5" stroke-miterlimit="10" stroke-linecap="round"/>
<path d="M1008 123.864C952.013 123.864 952.013 85.4714 896.027 85.4714C840.04 85.4714 840.04 123.864 784.053 123.864C728.066 123.864 728.067 85.4714 672.08 85.4714C616.093 85.4714 616.093 123.864 560.106 123.864C504.12 123.864 504.12 85.4714 448.133 85.4714C392.146 85.4714 392.146 123.864 336.16 123.864C280.173 123.864 280.173 85.4714 224.186 85.4714C168.199 85.4714 168.199 123.864 112.093 123.864C56.1064 123.864 56.1063 85.4714 0 85.4714" stroke="#161616" stroke-width="5" stroke-miterlimit="10" stroke-linecap="round"/>
<path d="M1008 59.0976C952.009 59.0976 952.009 20.7046 896.022 20.7046C840.035 20.7046 840.035 59.0976 784.048 59.0976C728.062 59.0976 728.062 20.7046 672.075 20.7046C616.088 20.7046 616.088 59.0976 560.102 59.0976C504.115 59.0976 504.115 20.7046 448.128 20.7046C392.141 20.7046 392.141 59.0976 336.155 59.0976C280.168 59.0976 280.168 20.7046 224.181 20.7046C168.195 20.7046 168.195 59.0976 112.088 59.0976C56.2211 59.0976 56.2211 20.7046 0.234375 20.7046" stroke="#161616" stroke-width="5" stroke-miterlimit="10" stroke-linecap="round"/>
<path d="M1008 402.078C952.013 402.078 952.013 363.685 896.027 363.685C840.04 363.685 840.04 402.078 784.053 402.078C728.066 402.078 728.067 363.685 672.08 363.685C616.093 363.685 616.093 402.078 560.106 402.078C504.12 402.078 504.12 363.685 448.133 363.685C392.146 363.685 392.146 402.078 336.16 402.078C280.173 402.078 280.173 363.685 224.186 363.685C168.199 363.685 168.199 402.078 112.093 402.078C56.1064 402.078 56.1063 363.685 0 363.685" stroke="#161616" stroke-width="5" stroke-miterlimit="10" stroke-linecap="round"/>
<path d="M1008 337.293C952.013 337.293 952.013 298.9 896.027 298.9C840.04 298.9 840.04 337.293 784.053 337.293C728.066 337.293 728.067 298.9 672.08 298.9C616.093 298.9 616.093 337.293 560.106 337.293C504.12 337.293 504.12 298.9 448.133 298.9C392.146 298.9 392.146 337.293 336.16 337.293C280.173 337.293 280.173 298.9 224.186 298.9C168.199 298.9 168.199 337.293 112.093 337.293C56.1064 337.293 56.1063 298.9 0 298.9" stroke="#161616" stroke-width="5" stroke-miterlimit="10" stroke-linecap="round"/>
<path d="M1008 272.528C952.009 272.528 952.009 234.135 896.022 234.135C840.035 234.135 840.035 272.528 784.048 272.528C728.062 272.528 728.062 234.135 672.075 234.135C616.088 234.135 616.088 272.528 560.102 272.528C504.115 272.528 504.115 234.135 448.128 234.135C392.141 234.135 392.141 272.528 336.155 272.528C280.168 272.528 280.168 234.135 224.181 234.135C168.195 234.135 168.195 272.528 112.088 272.528C56.2211 272.528 56.2211 234.135 0.234375 234.135" stroke="#161616" stroke-width="5" stroke-miterlimit="10" stroke-linecap="round"/>
</g>
</svg>
